<svg xmlns="http://www.w3.org/2000/svg" fill="none" viewBox="0 0 257 257">
  <path fill="#FDD331" d="M170.017 91.152c-23.428-43.217-65.875-54.29-100.582-22.608-39.628 36.142-23.48 94.225-23.48 94.225l4.307 16.148s21.89 44.345 44.088 59.878c18.968 13.277 48.24-1.743 48.445-30.246l27.222-117.397Z"/>
  <path fill="#FDD331" d="M158.124 205.883c-22.147 5.947-53.777 4.819-89.201-20.506-5.896-4.255-15.38-12.868-18.66-6.255-4.768 9.895-8.87 23.685-19.123 26.197a14.101 14.101 0 0 1-17.378-10.253l-7.741-28.35a14.146 14.146 0 0 1 10.253-17.378c10.253-2.718 20.506 7.023 29.938 13.431 5.947 4.152 9.997-8.151 13.022-14.764 17.891-39.833 44.754-56.392 66.644-62.544a65.005 65.005 0 0 1 71.053 31.887 17.531 17.531 0 0 0 19.378 9.843 9.658 9.658 0 0 1 7.331.913 9.643 9.643 0 0 1 4.537 5.828 9.638 9.638 0 0 1-.912 7.33 9.647 9.647 0 0 1-5.829 4.538l-10.253 2.769a13.274 13.274 0 0 0-8.51 9.432 66.645 66.645 0 0 1-44.549 47.882Z"/>
  <path fill="#000" d="M8.738 196.758a19.377 19.377 0 0 0 23.684 13.687c9.228-2.46 14.252-11.124 18.25-19.839 7.844 14.2 23.941 40.653 41.012 52.393a32.252 32.252 0 0 0 18.609 5.793 35.876 35.876 0 0 0 16.456-4.102 39.57 39.57 0 0 0 21.122-31.528 100.859 100.859 0 0 0 11.432-2.307 72.087 72.087 0 0 0 30.861-19.527 72.085 72.085 0 0 0 17.328-32.148 8.453 8.453 0 0 1 5.126-5.69l10.253-2.717a14.78 14.78 0 0 0-7.638-28.555 12.605 12.605 0 0 1-13.534-7.228 65.208 65.208 0 0 0-27.478-27.273c-12.919-23.326-31.477-38.141-52.444-41.678-19.02-3.23-38.757 3.434-55.52 18.711-30.247 27.632-29.99 66.645-27.376 86.433-7.33-5.126-15.38-9.125-23.838-6.818a19.378 19.378 0 0 0-13.688 23.684l7.383 28.709Zm113.039 38.858a23.374 23.374 0 0 1-24.454-1.025c-15.38-10.817-31.322-37.321-38.5-50.393a105.922 105.922 0 0 1 4.563 3.281l2.512 1.845c2.307 1.692 4.614 3.127 6.87 4.614l-1.487 2.922a5.125 5.125 0 0 0 2.255 6.921 5.13 5.13 0 0 0 2.307.513 5.125 5.125 0 0 0 4.563-2.82l1.18-2.256a167.432 167.432 0 0 0 6.715 3.486l-3.845 9.074a5.128 5.128 0 0 0 2.666 6.716c.628.283 1.31.423 1.999.41a5.124 5.124 0 0 0 4.768-3.076l3.896-9.074c3.537 1.333 7.023 2.512 10.253 3.435l-2.922 11.535a5.12 5.12 0 0 0 1.919 5.399 5.127 5.127 0 0 0 1.823.855h1.23a5.13 5.13 0 0 0 5.127-3.896l3.076-11.586a100.354 100.354 0 0 0 16.968 1.538h2.051a29.21 29.21 0 0 1-15.533 21.582ZM72.87 72.337c14.61-13.328 30.759-18.916 46.907-16.2A61.005 61.005 0 0 1 157.56 81.31a74.185 74.185 0 0 0-23.223-2.256l-5.127-14.61a5.126 5.126 0 0 0-9.638 3.486l4.614 12.765a95.341 95.341 0 0 0-10.919 3.742l-7.28-15.38a5.126 5.126 0 1 0-9.279 4.358l7.28 15.636a87.118 87.118 0 0 0-10.253 6.562l-10.868-13.33a5.126 5.126 0 0 0-8.049 6.306l10.56 13.534a101.988 101.988 0 0 0-7.125 7.024L66.616 98.893a5.127 5.127 0 0 0-7.28.41 5.126 5.126 0 0 0 .461 7.228l11.791 10.253c-1.435 1.897-2.922 3.896-4.306 5.947l-7.587-3.486a5.122 5.122 0 0 0-3.919-.181 5.122 5.122 0 0 0-2.9 2.642 5.126 5.126 0 0 0 2.513 6.715l6.305 2.923c-2.563 4.46-5.126 9.278-7.433 14.507-.359.872-.82 1.846-1.23 2.871-.41 1.026-2.051 4.819-3.333 7.126-2.666-14.764-6.767-56.186 23.172-83.51Zm-55.52 81.717c6.1-1.589 14.047 4.204 21.019 9.381 3.64 2.666 7.946 5.998 12.303 4.768 5.896-1.692 9.023-9.074 11.791-15.379l1.18-2.666c12.816-28.555 33.732-51.675 63.363-59.621a59.927 59.927 0 0 1 65.311 29.272 22.405 22.405 0 0 0 25.274 12.355 4.563 4.563 0 0 1 2.358 8.766l-10.253 2.717a18.662 18.662 0 0 0-12.201 13.278 59.879 59.879 0 0 1-21.275 33.476 62.646 62.646 0 0 1-30.759-72.797 5.127 5.127 0 1 0-9.843-2.87 72.956 72.956 0 0 0-1.948 32.861 196.823 196.823 0 0 0-25.889 2.563 13.745 13.745 0 0 0-10.253 7.792 12.916 12.916 0 0 0 1.128 12.457 41.374 41.374 0 0 0 20.147 17.841 30.775 30.775 0 0 0 9.741 1.691 37.719 37.719 0 0 0 21.582-7.536 71.768 71.768 0 0 0 16.61 14.355 56.956 56.956 0 0 1-9.945 4.255 85.767 85.767 0 0 1-41.012.615h-.359a98.887 98.887 0 0 1-18.302-5.998 137.806 137.806 0 0 1-24.966-14.611l-2.307-1.743c-5.126-3.896-11.944-9.125-18.045-7.638-5.126 1.23-6.767 6.869-8.254 10.253-3.486 7.946-7.433 16.968-13.534 18.609a8.917 8.917 0 0 1-6.869-.923 9.125 9.125 0 0 1-4.255-5.485l-7.69-28.76a9.125 9.125 0 0 1 6.152-11.278Zm118.935 3.537a74.183 74.183 0 0 0 7.638 16.507 25.01 25.01 0 0 1-21.89 4.461 32.813 32.813 0 0 1-14.918-13.637 2.985 2.985 0 0 1-.359-2.82 3.54 3.54 0 0 1 2.82-1.845 190.96 190.96 0 0 1 26.709-2.461v-.205Z"/>
  <path fill="#6FC1FD" d="M174.682 121.449a9.847 9.847 0 0 1-8.834 12.42 9.847 9.847 0 0 1-9.491-5.476 9.843 9.843 0 1 1 18.325-6.944Z"/>
  <path fill="#000" d="M157.508 136.931a14.908 14.908 0 0 0 11.33 1.487 14.94 14.94 0 1 0-7.741-28.862 15.375 15.375 0 0 0-9.074 6.972 14.861 14.861 0 0 0-1.487 11.33 14.616 14.616 0 0 0 6.972 9.073Zm3.384-15.379a4.558 4.558 0 0 1 2.871-2.153 3 3 0 0 1 1.179 0 4.715 4.715 0 0 1 4.562 3.486 5.121 5.121 0 0 1-.461 3.588 4.719 4.719 0 0 1-4.68 2.289 4.716 4.716 0 0 1-3.932-3.416 4.81 4.81 0 0 1 .461-3.692v-.102Z"/>
  <path fill="#6FC1FD" d="M251.58 100.174a14.46 14.46 0 0 1-17.277 14.179 14.45 14.45 0 0 1-11.359-11.358 14.457 14.457 0 1 1 28.636-2.821Z"/>
  <path fill="#000" d="M217.54 100.174a19.579 19.579 0 0 0 12.089 18.093 19.58 19.58 0 0 0 21.341-4.245 19.585 19.585 0 0 0-2.967-30.13 19.586 19.586 0 0 0-10.88-3.3 19.636 19.636 0 0 0-19.583 19.582Zm19.583-9.33a9.334 9.334 0 0 1 8.62 5.76 9.333 9.333 0 0 1-2.023 10.168 9.324 9.324 0 0 1-10.168 2.022 9.333 9.333 0 0 1-5.759-8.62 9.382 9.382 0 0 1 9.33-9.33Z"/>
  <path fill="#6FC1FD" d="M225.588 35.222a22.093 22.093 0 0 1-26.374 21.728 22.094 22.094 0 0 1-8.002-40.045 22.097 22.097 0 0 1 27.887 2.726 22.093 22.093 0 0 1 6.489 15.59Z"/>
  <path fill="#000" d="M203.493 62.443a27.225 27.225 0 0 0 25.186-16.768 27.217 27.217 0 0 0-19.805-37.148 27.222 27.222 0 1 0-5.381 53.916Zm0-44.139a16.971 16.971 0 0 1 16.697 20.267 16.977 16.977 0 0 1-13.348 13.347 16.969 16.969 0 1 1-3.349-33.614Z"/>
  <path fill="#6FC1FD" d="M51.646 41.63a14.456 14.456 0 1 1-28.913.103 14.456 14.456 0 0 1 28.913-.103Z"/>
  <path fill="#000" d="M37.138 61.213A19.582 19.582 0 1 0 17.555 41.63a19.635 19.635 0 0 0 19.583 19.583Zm0-28.862a9.331 9.331 0 1 1 0 18.662 9.331 9.331 0 0 1 0-18.662Z"/>
</svg>
